<?xml version="1.0" encoding="utf-8"?>
<svg viewBox="0 0 500 500" xmlns="http://www.w3.org/2000/svg">
  <ellipse style="fill: rgb(255, 255, 255);" cx="250" cy="250" rx="250" ry="250"/>
  <path class="dark-toggle" d="M 358.37 73.6 L 358.37 328.39 C 358.37 344.26 355.57 358.7 350.01 371.69 C 344.43 384.7 336.48 395.77 326.19 404.87 C 315.89 414 303.47 421.01 288.96 425.9 C 274.44 430.8 258.22 433.24 240.33 433.24 C 204.19 433.24 176.25 424.22 156.49 406.14 C 136.74 388.08 124.17 364.35 118.75 334.97 L 190.68 320.28 C 193.39 335.49 198.54 347.81 206.13 357.27 C 213.73 366.72 225.13 371.45 240.33 371.45 C 253.15 371.45 263.2 367.31 270.47 359.05 C 277.73 350.76 281.36 338.01 281.36 320.79 L 281.36 135.9 L 164.85 135.9 L 164.85 73.6 L 358.37 73.6 Z" style="fill: rgb(0, 1, 35);"/>
</svg>