<?xml version="1.0" standalone="no"?>
<!DOCTYPE svg PUBLIC "-//W3C//DTD SVG 20010904//EN"
 "http://www.w3.org/TR/2001/REC-SVG-20010904/DTD/svg10.dtd">
<svg version="1.0" xmlns="http://www.w3.org/2000/svg"
 width="700.000000pt" height="700.000000pt" viewBox="0 0 700.000000 700.000000"
 preserveAspectRatio="xMidYMid meet">
<metadata>
Created by potrace 1.14, written by Peter Selinger 2001-2017
</metadata>
<g transform="translate(0.000000,700.000000) scale(0.100000,-0.100000)"
fill="#000000" stroke="none">
<path d="M2422 5621 l3 -455 848 0 848 0 -4 -1440 c-2 -793 -7 -1459 -11
-1481 -69 -345 -266 -516 -593 -513 -198 2 -340 55 -453 168 -64 65 -76 83
-143 210 -41 77 -91 221 -106 304 -6 33 -12 60 -13 61 -6 4 -1037 -211 -1043
-217 -4 -4 2 -47 14 -96 139 -591 500 -1033 993 -1213 82 -30 250 -75 314 -84
22 -3 48 -7 59 -10 130 -27 613 -28 750 -1 11 2 40 7 65 11 99 16 154 30 272
69 120 39 347 145 378 176 3 3 32 23 65 45 87 58 261 236 327 335 63 95 119
203 155 299 27 71 69 234 77 296 3 22 8 65 12 95 8 62 12 3878 4 3889 -3 4
-638 7 -1413 7 l-1407 0 2 -455z"/>
</g>
</svg>
